<svg xmlns="http://www.w3.org/2000/svg" viewBox="0 0 220 293.33"><defs><style>.cls-1{fill:#e9ecee;}.cls-2{fill:#0086d4;}</style></defs><g id="Layer_2" data-name="Layer 2"><g id="Layer_1-2" data-name="Layer 1"><path class="cls-1" d="M110,0A110,110,0,0,0,0,110c0,44.35,15.45,56.74,98.69,177.41a13.76,13.76,0,0,0,22.62,0C204.55,166.74,220,154.35,220,110A110,110,0,0,0,110,0Z"/><path class="cls-2" d="M110,0A110,110,0,0,0,0,110c0,44.35,15.45,56.74,98.69,177.41a13.76,13.76,0,0,0,22.62,0C204.55,166.74,220,154.35,220,110A110,110,0,0,0,110,0Zm0,177.27a49.5,49.5,0,0,1-49.5-49.5c0-20,7-25.53,44.41-79.83a6.19,6.19,0,0,1,10.18,0c37.46,54.3,44.41,59.87,44.41,79.83A49.5,49.5,0,0,1,110,177.27Z"/></g></g></svg>