<svg xmlns="http://www.w3.org/2000/svg" viewBox="0 0 220 293.33"><defs><style>.cls-1{fill:#e9ecee;}.cls-2{fill:#e03228;}</style></defs><g id="Layer_2" data-name="Layer 2"><g id="Layer_1-2" data-name="Layer 1"><path class="cls-1" d="M110,0A110,110,0,0,0,0,110c0,44.35,15.45,56.74,98.69,177.41a13.76,13.76,0,0,0,22.62,0C204.55,166.74,220,154.35,220,110A110,110,0,0,0,110,0Z"/><path class="cls-2" d="M110,0A110,110,0,0,0,0,110c0,44.35,15.45,56.74,98.69,177.41a13.76,13.76,0,0,0,22.62,0C204.55,166.74,220,154.35,220,110A110,110,0,0,0,110,0ZM81.75,75.59A16.25,16.25,0,1,1,65.5,91.84,16.27,16.27,0,0,1,81.75,75.59ZM176,143.84a3.25,3.25,0,0,1-3.25,3.25h-6.5a3.25,3.25,0,0,1-3.25-3.25v-9.75H59v9.75a3.25,3.25,0,0,1-3.25,3.25h-6.5A3.25,3.25,0,0,1,46,143.84V72.34a3.24,3.24,0,0,1,3.25-3.25h6.5A3.24,3.24,0,0,1,59,72.34v42.25h45.5V85.34a3.24,3.24,0,0,1,3.25-3.25h45.5A22.74,22.74,0,0,1,176,104.84Z"/></g></g></svg>