<?xml version="1.0" encoding="utf-8"?>
<!-- Generator: Adobe Illustrator 25.2.3, SVG Export Plug-In . SVG Version: 6.00 Build 0)  -->
<svg version="1.1" id="Layer_1" xmlns="http://www.w3.org/2000/svg" xmlns:xlink="http://www.w3.org/1999/xlink" x="0px" y="0px"
	 viewBox="0 0 496 496" style="enable-background:new 0 0 496 496;" xml:space="preserve">
<style type="text/css">
	.st0{fill:#00CC99;}
	.st1{fill:#E9ECEE;}
	.st2{fill:#CCCCCC;}
	.st3{fill:#FFFFFF;}
	.st4{fill:#23CC99;}
	.st5{fill:#E03228;}
	.st6{fill:#ADE3D4;}
	.st7{fill:#0086D4;}
</style>
<path class="st0" d="M496,248c0,137-111,248-248,248S0,385,0,248S111,0,248,0S496,111,496,248z M219.3,379.3l184-184
	c6.2-6.2,6.2-16.4,0-22.6l-22.6-22.6c-6.2-6.2-16.4-6.2-22.6,0L208,300.1l-70.1-70.1c-6.2-6.2-16.4-6.2-22.6,0l-22.6,22.6
	c-6.2,6.2-6.2,16.4,0,22.6l104,104C202.9,385.6,213.1,385.6,219.3,379.3L219.3,379.3z"/>
</svg>
