<svg xmlns="http://www.w3.org/2000/svg" viewBox="0 0 336.97 239.47"><defs><style>.cls-1{fill:#e9ecee;}.cls-2{fill:#0c9;}</style></defs><g id="Layer_2" data-name="Layer 2"><g id="Layer_1-2" data-name="Layer 1"><circle class="cls-1" cx="160.5" cy="119.73" r="119.73"/><g id="g20"><path id="path4" class="cls-2" d="M173.69,102.5c-14.32.23-26.65,12.33-27.57,26.88s10.8,27.65,26,29.18,27.57-10.57,27.57-26.88S188,102.27,173.69,102.5ZM184,132.75c-.61,7.59-5.36,11.72-8.5,12-7.89.91-14.63-6.21-14.17-15.32s4.13-14.78,11.56-14.94,12,8.35,11.11,18.23Z"/><path id="path6" class="cls-2" d="M230,104c-14.32-.23-26,12.78-26,29.17s12.33,28.42,27.57,26.89,26.88-14.56,26-29.18S244.38,104.26,230,104Zm-1.76,42.35c-3.14-.39-7.81-4.52-8.5-12-.84-9.88,3.68-18.38,11.11-18.22s11.1,5.82,11.56,14.93-6.28,16.24-14.17,15.32Z"/><path id="polygon8" class="cls-2" d="M63.18,90.32,47.79,84.43l-30,28.64V77.3L0,81.82v84l17.77.61L17.61,137l11-10.57,11.56,40h15.7L41.36,114.29Z"/><path id="path10" class="cls-2" d="M112,100l-.31-37.67-15.16,4,2.44,93.12,14.94.54-.84-48.1c3.29-1.45,14.09-4.44,14.47,7.43L129,136.19,130,160h15.62l-5.89-41.13C137.32,94.84,128.51,94.76,112,100Z"/><path id="polygon12" class="cls-2" d="M318,160.48l-4.36,10.26,9.34,6.43,9.19-5.44-3.91-11.25Z"/><path id="path14" class="cls-2" d="M278.31,77.3l-11.87-4.9V97l-13.25-.46L255.72,114h10.72l.76,41.59s-1.68,14.93,21.14,11.56c0,0,7.12-2.14,6.89-7.12V143.63a22.6,22.6,0,0,1-10,2.83c-5.21,0-5.28-2.53-5.28-2.53l-1.38-32.17,16.62-.91V100.2l-17.08-1.15Z"/><path id="polygon16" class="cls-2" d="M337,77.46l-31.4-6,19.3,83.1Z"/><path id="path18" class="cls-2" d="M59.43,100.51l4.14,10.87c10.33-6.2,16.15,0,16.15,0l-.08,7c-30.78,5.44-23,33.93-23,33.93,3.14,11.18,13.25,10.79,13.25,10.79H93l.46-51.84C89.83,87.11,59.43,100.51,59.43,100.51Zm20.22,52.61s-11.18,2.68-12.41-8.19c0,0,.23-16.85,12.79-15Z"/></g></g></g></svg>