<svg xmlns="http://www.w3.org/2000/svg" viewBox="0 0 229 214.11"><defs><style>.cls-1{fill:#e9ecee;}.cls-2{fill:#0c9;}</style></defs><g id="Layer_2" data-name="Layer 2"><g id="Layer_1-2" data-name="Layer 1"><path class="cls-1" d="M227.34,168.4c-.1-.17-.21-.34-.31-.52a14.1,14.1,0,0,0-1.48-1,1,1,0,0,1-.19-.13,3.21,3.21,0,0,0-.78-.57,20.19,20.19,0,0,1-1.93-1.28c-.42-.34-1-.66-1.36-1s-1.1-.7-1.46-1.1c-.73-.44-1.24-1-2-1.37a1.17,1.17,0,0,1-.26-.17,4.33,4.33,0,0,0-.91-.65c-.29-.19-.61-.36-.87-.55a5.46,5.46,0,0,0-.8-.48c-.34-.16-.59-.36-.94-.51-.93-.41-1.77-.87-2.69-1.28s-1.88-.87-2.85-1.28c-.75-.32-1.5-.64-2.29-.93-1.49-.53-3-1.06-4.49-1.56-2.18-.74-4.4-1.41-6.66-2.06a80.31,80.31,0,0,0-7.9-1.8,10.23,10.23,0,0,0-3.52-.08l-2.1.32a11.71,11.71,0,0,1-2.85,0,50.48,50.48,0,0,1-6-.9c-.41-.09-.82-.18-1.2-.3-1.08-.35-2.15-.72-3.22-1.08-1.35-.47-2.69-.95-4.08-1.38a13.06,13.06,0,0,0-1.55-.41l-1.41-.22a2.58,2.58,0,0,1-.42.13c-1.51.3-3,.62-4.57.87l-2,.35c-1.37.26-2.64.6-3.92.92-2.88.73-5.73,1.48-8.59,2.23-1.89.49-3.75,1-5.56,1.55l-.3.09c-.95.29-1.92.57-2.89.85l-2.46.71c-1,.3-2.08.56-3.18.78-.75.15-1.52.29-2.32.4a12.19,12.19,0,0,1-1.37.05h-.56c-.84,0-1.67,0-2.52,0s-1.6,0-2.4,0a4.33,4.33,0,0,0-1.45.29,3.48,3.48,0,0,0-1.15.63,5.9,5.9,0,0,1-1,.7,4.83,4.83,0,0,1-2.17.5l-6.2.34a3.37,3.37,0,0,1-.55,0c-.84-.09-1.6,0-2.44-.05-.38,0-.75,0-1.13,0-.59,0-1.18,0-1.78,0-1.74-.1-3.48-.23-5.24-.49a3.86,3.86,0,0,1-1.46-.45c-1.18-.67-2-1.38-1.74-2.2a.65.65,0,0,1,0-.13,1.7,1.7,0,0,0,0-.71c0-.21-.23-.36-.58-.46a8.23,8.23,0,0,0-1.12-.23c-.47-.07-1-.1-1.43-.15l-2-.22a2.53,2.53,0,0,1-1.43-.56,2.94,2.94,0,0,1-.72-.86,4,4,0,0,0-.92-1,3.52,3.52,0,0,0-1-.55,32.51,32.51,0,0,0-3.46-1.08c-1-.24-1.92-.44-2.89-.64-.56-.11-1.14-.21-1.71-.27s-1-.05-1.51-.06l-2,0c-.72,0-1.45-.06-2.15,0-1,0-2.14,0-3.16,0a.88.88,0,0,1-.28,0,8.14,8.14,0,0,0-1.21,0c-.92,0-1.81.1-2.77.06-.72,0-1.43,0-2.15,0s-1.54.05-2.35,0c-1,.05-2,0-3,0a2.22,2.22,0,0,1-.37,0,7.17,7.17,0,0,0-1.39,0c-.4,0-.79.05-1.2,0a7.29,7.29,0,0,0-1.06.06c-.37,0-.8,0-1.16.1-1,.16-2,.26-3,.42s-2,.3-3,.48c-.76.15-1.54.28-2.26.46-1.33.34-2.65.69-4,1.06-1.88.54-3.66,1.13-5.4,1.76a29.5,29.5,0,0,0-5.26,2.5,1.76,1.76,0,0,0-1.07,1.58c0,.4,0,.8,0,1.2a1.86,1.86,0,0,1-.66,1.35,12.88,12.88,0,0,1-3.17,2.21,5.57,5.57,0,0,1-.85.36c-.9.27-1.83.53-2.76.79-1.19.32-2.4.63-3.52,1a5.42,5.42,0,0,0-1.13.46,22.12,22.12,0,0,0-1.93,1.38c-.63.5-1.21,1-1.78,1.56a12.59,12.59,0,0,0-.86.94l-.12.14c-.48.54-1,1.08-1.44,1.61s-.78.79-1.14,1.19c-.59.64-1.15,1.29-1.71,1.94-.38.43-.76.86-1.11,1.3s-.8,1.06-1.19,1.59S.49,176.6.09,177.15a.55.55,0,0,0,.11.72l.72.79a2.69,2.69,0,0,0,1.34.68l1.11.24c.77.18,1.54.37,2.29.59l.17,0c.55.16,1.1.33,1.63.51a6,6,0,0,1,.77.36c.1,0,.18.1.28.15.44.23.91.44,1.32.68a12,12,0,0,0,1.3.63,3.88,3.88,0,0,0,1,.31,7.66,7.66,0,0,0,1.25.12c.42,0,.83,0,1.25.07a5.08,5.08,0,0,1,1.65.44l3.59,1.57a2.1,2.1,0,0,1,.3.15c.35.25.88.41,1.23.67a5.67,5.67,0,0,0,.55.31c.3.17.62.32.9.49a19.46,19.46,0,0,1,2.23,1.56c.22.18.33.35.31.53-.07.51-.39.94-1.36,1.11l-.16,0a5.11,5.11,0,0,0-.75.2c-.21.07-.25.17-.17.29a1.73,1.73,0,0,0,.35.37c.18.15.4.29.6.43l.69.51.14.1c.25.19.28.37.16.55a1.75,1.75,0,0,1-.51.45,1.57,1.57,0,0,0-.53.53.44.44,0,0,0,0,.43,4.76,4.76,0,0,0,.7,1.25,10.73,10.73,0,0,0,.85,1,4.6,4.6,0,0,0,.61.54,6.38,6.38,0,0,0,.73.43l1,.54c.36.2.7.41,1.08.59.58.27,1.07.59,1.69.84a.53.53,0,0,1,.15.08,3.09,3.09,0,0,0,.63.32c.51.24,1.05.47,1.51.73s.77.38,1.1.59.85.4,1.18.65c.56.24,1,.55,1.59.79a.93.93,0,0,1,.2.1,4.15,4.15,0,0,0,.73.37c.22.11.46.2.67.31a4.45,4.45,0,0,0,.62.27c.25.09.46.21.71.29.67.21,1.31.46,2,.68l2.08.67c.55.16,1.09.33,1.65.47,1,.26,2.11.51,3.17.75,1.53.35,3.07.66,4.63.94a52.83,52.83,0,0,0,5.33.69,5.89,5.89,0,0,0,2.19-.18c.4-.12.8-.25,1.21-.36a6.23,6.23,0,0,1,1.74-.22,32.75,32.75,0,0,1,3.93.2,7.19,7.19,0,0,1,.81.13c.76.16,1.51.33,2.26.51,1,.22,1.9.46,2.87.65a9.78,9.78,0,0,0,1.06.18c.81.05,1.63.09,2.43.11s1.7,0,2.54,0c.55,0,1.08,0,1.63,0,.8,0,1.6-.07,2.41-.09l1.82,0,2.9-.11,1.92-.09,2.25-.14,3.66-.26c1.25-.09,1.42-.75,2.53-1l.24-.06h0l.1,0c.75-.15,1.52-.29,2.32-.4a12.19,12.19,0,0,1,1.37,0c.18,0,.37,0,.56,0,.84,0,1.67,0,2.52,0s1.6,0,2.4,0a4.67,4.67,0,0,0,1.45-.28,3.88,3.88,0,0,0,1.15-.63,5.93,5.93,0,0,1,1-.71,5,5,0,0,1,2.17-.5c2.06-.12,4.13-.22,6.2-.33a3.37,3.37,0,0,1,.55,0c.84.08,1.6,0,2.44,0a10.67,10.67,0,0,0,1.13,0c.59,0,1.18,0,1.78,0,1.74.1,3.48.23,5.24.48a4.25,4.25,0,0,1,1.46.45c1.18.67,2,1.38,1.74,2.2a.57.57,0,0,1,0,.14,1.7,1.7,0,0,0,0,.71c0,.21.23.36.58.46a8.23,8.23,0,0,0,1.12.23c.47.07.95.1,1.43.15l2,.21a2.53,2.53,0,0,1,1.43.57,3,3,0,0,1,.72.85,3.83,3.83,0,0,0,.92,1,3.78,3.78,0,0,0,1,.55,35,35,0,0,0,3.46,1.07c.95.25,1.92.45,2.89.64a16.47,16.47,0,0,0,1.71.28c.51.05,1,.05,1.51.06l2,0c.72,0,1.45.06,2.15,0,1.05,0,2.14.05,3.16,0h.28a7,7,0,0,0,1.21,0c.92,0,1.81-.1,2.77-.06.72,0,1.43,0,2.15,0s1.54-.06,2.35,0c1-.05,2,0,3,0a1.52,1.52,0,0,1,.37,0,9.21,9.21,0,0,0,1.39,0c.4,0,.79,0,1.2,0a6.11,6.11,0,0,0,1.06-.06c.37-.05.8,0,1.16-.09,1-.17,2-.26,3-.42s2-.31,3-.49c.76-.14,1.54-.27,2.26-.46,1.33-.34,2.65-.69,4-1.06,1.88-.53,3.66-1.12,5.4-1.75a30.21,30.21,0,0,0,5.26-2.5,1.76,1.76,0,0,0,1.07-1.59c0-.39,0-.79,0-1.19a1.9,1.9,0,0,1,.66-1.36,12.86,12.86,0,0,1,3.17-2.2,4.72,4.72,0,0,1,.85-.36c.9-.27,1.83-.53,2.76-.79,1.19-.33,2.4-.63,3.52-1l.48-.16a4,4,0,0,0,.65-.29c.69-.44,1.33-.91,1.93-1.38s1.21-1,1.78-1.56c.36-.35.66-.72,1-1.08.48-.54.95-1.08,1.44-1.62s.78-.78,1.14-1.18c.59-.65,1.15-1.3,1.71-1.94.38-.44.76-.87,1.11-1.31s.8-1.05,1.19-1.58c.63-.87,1.26-1.73,1.88-2.6a7.06,7.06,0,0,0,1.12-2.83l0-.22c.15-.79.24-1.6.34-2.4a13.45,13.45,0,0,0,.18-2.46,9.06,9.06,0,0,1,.16-2.55c.08-.41.14-.81.23-1.21a3.44,3.44,0,0,1,.48-1.2Z"/><path class="cls-2" d="M144.3,0A65.91,65.91,0,0,0,78.39,65.91c0,26.58,9.26,34,59.14,106.31a8.24,8.24,0,0,0,13.55,0C201,99.91,210.21,92.49,210.21,65.91A65.91,65.91,0,0,0,144.3,0Zm0,98.44a29.8,29.8,0,1,1,29.81-29.8A29.8,29.8,0,0,1,144.3,98.44Z"/></g></g></svg>