<svg id="Layer_1" data-name="Layer 1" xmlns="http://www.w3.org/2000/svg" viewBox="0 0 640 320"><defs><style>.cls-1{fill:#0c9;}</style></defs><path class="cls-1" d="M616,0H24A24,24,0,0,0,0,24V296a24,24,0,0,0,24,24H616a24,24,0,0,0,24-24V24A24,24,0,0,0,616,0ZM304,288H32V32H304Zm304,0H336V32H608ZM91.09,256h10.34a12,12,0,0,0,11.39-8.24l13.51-41h67.34l13.51,41A12,12,0,0,0,218.57,256h10.34a12,12,0,0,0,11.32-16L181.08,72a12,12,0,0,0-11.32-8H150.24a12,12,0,0,0-11.31,8L79.77,240A12,12,0,0,0,91.09,256Zm60.66-129c3.79-10.82,8.11-29.75,8.11-29.75h.54S164.46,116.19,168,127l17,51.38h-50.3ZM384,116v-8a12,12,0,0,1,12-12h68V76a12,12,0,0,1,12-12h8a12,12,0,0,1,12,12V96h68a12,12,0,0,1,12,12v8a12,12,0,0,1-12,12H548.3c-7.5,24.8-23.43,50.94-44.89,74.84a248.76,248.76,0,0,0,30.92,24.09,12,12,0,0,1,3.84,16l-4,7a12,12,0,0,1-17,4.09,274.75,274.75,0,0,1-36.56-28.5,294,294,0,0,1-38,28.68,12,12,0,0,1-16.79-4.22l-4-6.95a12,12,0,0,1,4.06-16.13,263,263,0,0,0,32.24-24.23,309.24,309.24,0,0,1-25.68-33,12,12,0,0,1,3.8-17l6.87-4.1a12,12,0,0,1,16.09,3.59A266.58,266.58,0,0,0,480.92,180c15-16.93,26.73-34.9,33.55-52H396a12,12,0,0,1-12-12Z"/></svg>