<svg id="Layer_1" data-name="Layer 1" xmlns="http://www.w3.org/2000/svg" viewBox="0 0 640 448"><defs><style>.cls-1{fill:#ccc;}</style></defs><path class="cls-1" d="M608,0H32A32,32,0,0,0,0,32V416a32,32,0,0,0,32,32H608a32,32,0,0,0,32-32V32A32,32,0,0,0,608,0ZM176,295.88V312a8,8,0,0,1-8,8H152a8,8,0,0,1-8-8V295.71a57.26,57.26,0,0,1-31.37-11.35,8,8,0,0,1-.57-12.14L123.81,261a8.21,8.21,0,0,1,10.13-.73A24.08,24.08,0,0,0,146.76,264h28.11c6.5,0,11.8-5.92,11.8-13.19,0-5.95-3.61-11.19-8.77-12.73l-45-13.5c-18.59-5.58-31.58-23.42-31.58-43.39,0-24.52,19.05-44.44,42.67-45.07V120a8,8,0,0,1,8-8h16a8,8,0,0,1,8,8v16.29a57.18,57.18,0,0,1,31.37,11.35,8,8,0,0,1,.57,12.14L196.18,171a8.21,8.21,0,0,1-10.13.73A24,24,0,0,0,173.23,168H145.12c-6.5,0-11.8,5.92-11.8,13.19,0,5.95,3.61,11.19,8.77,12.73l45,13.5c18.59,5.58,31.58,23.42,31.58,43.39,0,24.53-19,44.44-42.67,45.07ZM416,280a8,8,0,0,1-8,8H296a8,8,0,0,1-8-8V264a8,8,0,0,1,8-8H408a8,8,0,0,1,8,8Zm160,0a8,8,0,0,1-8,8H488a8,8,0,0,1-8-8V264a8,8,0,0,1,8-8h80a8,8,0,0,1,8,8Zm0-96a8,8,0,0,1-8,8H296a8,8,0,0,1-8-8V168a8,8,0,0,1,8-8H568a8,8,0,0,1,8,8Z"/></svg>