<?xml version="1.0" encoding="utf-8"?>
<!-- Generator: Adobe Illustrator 25.2.3, SVG Export Plug-In . SVG Version: 6.00 Build 0)  -->
<svg version="1.1" id="Layer_1" xmlns="http://www.w3.org/2000/svg" xmlns:xlink="http://www.w3.org/1999/xlink" x="0px" y="0px"
	 viewBox="0 0 496 496" style="enable-background:new 0 0 496 496;" xml:space="preserve">
<style type="text/css">
	.st0{fill:#00CC99;}
	.st1{fill:#E9ECEE;}
	.st2{fill:#CCCCCC;}
	.st3{fill:#FFFFFF;}
	.st4{fill:#23CC99;}
	.st5{fill:#E03228;}
	.st6{fill:#ADE3D4;}
	.st7{fill:#0086D4;}
</style>
<g>
	<path class="st2" d="M248,0C111,0,0,111,0,248s111,248,248,248s248-111,248-248S385,0,248,0z M248,464c-118.7,0-216-96.1-216-216
		c0-118.7,96.1-216,216-216c118.7,0,216,96.1,216,216C464,366.7,367.9,464,248,464z M389.6,189l-180.5,179c-4.7,4.7-12.3,4.6-17-0.1
		l-85.9-86.6c-4.7-4.7-4.6-12.3,0.1-17l8.5-8.5c4.7-4.7,12.3-4.6,17,0.1l69,69.5l163.4-162.1c4.7-4.7,12.3-4.6,17,0.1l8.5,8.5
		C394.4,176.8,394.3,184.4,389.6,189L389.6,189z"/>
</g>
</svg>
