<svg id="Layer_1" data-name="Layer 1" xmlns="http://www.w3.org/2000/svg" viewBox="0 0 512 512"><defs><style>.cls-1{fill:#ccc;}</style></defs><path class="cls-1" d="M256,0C114.58,0,0,114.58,0,256S114.58,512,256,512,512,397.42,512,256,397.42,0,256,0Zm0,99.1a90.84,90.84,0,1,1-90.84,90.84A90.84,90.84,0,0,1,256,99.1Zm0,355.09a197.8,197.8,0,0,1-151.23-70.4c19.41-36.54,57.4-61.73,101.68-61.73a25.32,25.32,0,0,1,7.33,1.14,128.74,128.74,0,0,0,84.44,0,25.32,25.32,0,0,1,7.33-1.14c44.28,0,82.27,25.19,101.68,61.73A197.8,197.8,0,0,1,256,454.19Z"/></svg>