<svg id="Layer_1" data-name="Layer 1" xmlns="http://www.w3.org/2000/svg" viewBox="0 0 416 512"><defs><style>.cls-1{fill:#0c9;}</style></defs><path class="cls-1" d="M207.9,15.2c.8,4.7,16.1,94.5,16.1,128.8,0,52.3-27.8,89.6-68.9,104.6L168,486.7A24.06,24.06,0,0,1,144,512H80a24.06,24.06,0,0,1-24-25.3L68.9,248.6C27.7,233.6,0,196.2,0,144,0,109.6,15.3,19.9,16.1,15.2,19.3-5.1,61.4-5.4,64,16.3V157.5c1.3,3.4,15.1,3.2,16,0,1.4-25.3,7.9-139.2,8-141.8,3.3-20.8,44.7-20.8,47.9,0,.2,2.7,6.6,116.5,8,141.8.9,3.2,14.8,3.4,16,0V16.3C162.5-5.3,204.7-5.1,207.9,15.2ZM327.1,300.9,312.1,486A24,24,0,0,0,336,512h56a23.94,23.94,0,0,0,24-24V24A24,24,0,0,0,392,0c-82.5,0-221.4,178.5-64.9,300.9Z"/></svg>