<svg xmlns="http://www.w3.org/2000/svg" viewBox="0 0 231.82 210.47"><defs><style>.cls-1{fill:#e9ecee;}.cls-2{fill:#0c9;}</style></defs><g id="Layer_2" data-name="Layer 2"><g id="Layer_1-2" data-name="Layer 1"><ellipse class="cls-1" cx="153.32" cy="196.75" rx="78.51" ry="13.72"/><g id="Group_127" data-name="Group 127"><path id="Path_26" data-name="Path 26" class="cls-2" d="M131.56,120.93l-5.33,1.41-8.1-30.58-10.7,2.83h0L95.57,132.36,97.93,139l19.88-5.26,2.8,10.59,10.7-2.83-2.81-10.6,5.33-1.41Zm-26,6.89L111,110.34l.33-1.23,4.26,16.06Z"/><path id="Path_27" data-name="Path 27" class="cls-2" d="M100.88,0A100.88,100.88,0,1,0,201.75,100.88h0A100.88,100.88,0,0,0,100.88,0Zm12.27,173.05a55.72,55.72,0,1,1,55.72-55.72,55.72,55.72,0,0,1-55.72,55.72Z"/></g></g></g></svg>