<svg id="Layer_1" data-name="Layer 1" xmlns="http://www.w3.org/2000/svg" viewBox="0 0 576 512"><defs><style>.cls-1{fill:#ccc;}</style></defs><path class="cls-1" d="M510.5,225.5A80,80,0,0,0,432,160a79,79,0,0,0-34.3,8A95.82,95.82,0,0,0,224,224c0,.5.2,1.1.2,1.6A80,80,0,0,0,240,384H496a79.9,79.9,0,0,0,14.5-158.5ZM124.1,259.9a96.21,96.21,0,0,1,0-135.8c34.6-34.6,89.1-36.8,126.7-7.4A127.12,127.12,0,0,1,320,96c.7,0,1.3.2,2,.2l8.9-26.7a13,13,0,0,0-16.5-16.4L239.1,78.2l-35.5-71a13,13,0,0,0-23.3,0l-35.5,71L69.5,53.1A13,13,0,0,0,53.1,69.6l25.1,75.3-71,35.5a13,13,0,0,0,0,23.3l71,35.5L53.1,314.5A13.06,13.06,0,0,0,69.6,331l59.2-19.7c-.2-2.4-.7-4.7-.7-7.2a110.52,110.52,0,0,1,6.2-35.9,92.22,92.22,0,0,1-10.2-8.3Zm69.8-58a127.52,127.52,0,0,1,31.9-64A63.13,63.13,0,0,0,192,128a64.06,64.06,0,0,0-64,64,63.4,63.4,0,0,0,21.1,47.1,112.14,112.14,0,0,1,44.8-37.2ZM524.5,418.1a16,16,0,0,0-21.8,6l-36.6,64a15.94,15.94,0,0,0,6,21.8,16,16,0,0,0,21.8-6l36.6-64A16,16,0,0,0,524.5,418.1Zm-96,0a16,16,0,0,0-21.8,6l-36.6,64a15.94,15.94,0,0,0,6,21.8,16,16,0,0,0,21.8-6l36.6-64A16,16,0,0,0,428.5,418.1Zm-96,0a16,16,0,0,0-21.8,6l-36.6,64a15.94,15.94,0,0,0,6,21.8,16,16,0,0,0,21.8-6l36.6-64A16,16,0,0,0,332.5,418.1Zm-96,0a16,16,0,0,0-21.8,6l-36.6,64a15.94,15.94,0,0,0,6,21.8,16,16,0,0,0,21.8-6l36.6-64A16,16,0,0,0,236.5,418.1Z"/></svg>