<svg id="Layer_1" data-name="Layer 1" xmlns="http://www.w3.org/2000/svg" viewBox="0 0 496 496"><defs><style>.cls-1{fill:#0c9;}</style></defs><path class="cls-1" d="M496,247.53C496.25,384.17,384.82,495.9,248.18,496A247,247,0,0,1,92.36,441.09a24,24,0,0,1-1.84-35.61l11.27-11.27a24,24,0,0,1,31.89-2,184,184,0,1,0-11.75-278.3l50.76,50.76c10.08,10.08,2.94,27.31-11.32,27.31H16A16,16,0,0,1,0,176V30.63C0,16.37,17.23,9.23,27.31,19.31L76.69,68.68A247.17,247.17,0,0,1,248,0C384.81,0,495.75,110.78,496,247.53ZM315.09,326.32l9.82-12.64A24,24,0,0,0,320.7,280L280,248.35V144a24,24,0,0,0-24-24H240a24,24,0,0,0-24,24V279.65l65.41,50.87A24,24,0,0,0,315.09,326.32Z"/></svg>