<svg id="Layer_1" data-name="Layer 1" xmlns="http://www.w3.org/2000/svg" viewBox="0 0 512 512"><defs><style>.cls-1{fill:#fff;}</style></defs><path class="cls-1" d="M256,168a88,88,0,1,0,88,88A88,88,0,0,0,256,168Zm0,128a40,40,0,1,1,40-40A40,40,0,0,1,256,296Zm240-64H446.34A191.85,191.85,0,0,0,280,65.66V16A16,16,0,0,0,264,0H248a16,16,0,0,0-16,16V65.66A191.85,191.85,0,0,0,65.66,232H16A16,16,0,0,0,0,248v16a16,16,0,0,0,16,16H65.66A191.85,191.85,0,0,0,232,446.34V496a16,16,0,0,0,16,16h16a16,16,0,0,0,16-16V446.34A191.86,191.86,0,0,0,446.34,280H496a16,16,0,0,0,16-16V248A16,16,0,0,0,496,232ZM256,400c-79.4,0-144-64.6-144-144s64.6-144,144-144,144,64.6,144,144S335.4,400,256,400Z"/></svg>