<svg xmlns="http://www.w3.org/2000/svg" viewBox="0 0 463.28 1306.83"><defs><style>.cls-1{fill:#e9ecee;opacity:1;isolation:isolate;}</style></defs><g id="Layer_2" data-name="Layer 2"><g id="Layer_1-2" data-name="Layer 1"><path id="Path_34" data-name="Path 34" class="cls-1" d="M449.69,144.14l-2.26-37.51,10.1-.53,2.63-17.65-4-5.79-4.55-.88-.88-2.19,2.3-3-8.5-11.81-1.71-11.34-6.67-4.31-3.1-.51a9.88,9.88,0,0,1,.88-1.42,8.75,8.75,0,0,1,2.22-1.42c.65-.26,2.07-.32,2.74-.53.38-.12,1.23-.34,1.46-.66a2.9,2.9,0,0,0,.13-1.37c0-.45-.2-1.32-.26-1.76-.11-.74-.33-2.21-.41-2.95-.13-1-.22-3.07-.42-4.08s-.85-2.74-1.12-3.66a25.72,25.72,0,0,1-1-3.66c-.07-.78.3-2.34.3-3.13s-.32-2.3-.3-3.07a12.44,12.44,0,0,1,.53-3.48,11.75,11.75,0,0,1,2-2.48c.77-.78,2.63-2,3.37-2.78a14.84,14.84,0,0,0,2.45-3.66,18.88,18.88,0,0,0,.38-5.25A28.56,28.56,0,0,0,445.5,0c-.73.22-1.55.45-2.05.62a26.92,26.92,0,0,0-4,1.51,12.36,12.36,0,0,0-2.57,2.21,39.59,39.59,0,0,0-2.75,5.14,46.57,46.57,0,0,0-2.92,5.66c-.33,1.07-.16,3.38-.53,4.43a10.1,10.1,0,0,1-1.95,3.1,18.81,18.81,0,0,1-3.46,1.77c-.86.43-2.63,1.19-3.45,1.69a20.9,20.9,0,0,0-1.76,1.26c-.32-.38-2-2.4-2.61-3.06a10.78,10.78,0,0,0-2.42-2.25c-.7-.29-2.27,0-3-.12a16.72,16.72,0,0,1-3.6-1.06c-.9-.44-2.4-1.82-3.25-2.36a16.18,16.18,0,0,0-2.54-1.42,15.76,15.76,0,0,0-2.48-.35,42.24,42.24,0,0,1-4.63-.35,20.55,20.55,0,0,1-4.1-2c-.64-.4-2.36-1.89-2.36-1.89V7.18l-8.64-4.3a7.91,7.91,0,0,0-1.9.8c-.42.38-.76,1.54-1.1,2S376.09,7,375.66,7.4a15.61,15.61,0,0,0-1.77,2c-.35.6-.66,2-.93,2.62a6.68,6.68,0,0,1-1,2.12,3.62,3.62,0,0,1-2.4.67c-.44-.14-.77-1.23-1.2-1.42a5,5,0,0,0-2.3,0,11.3,11.3,0,0,0-3.1,1.42,9.34,9.34,0,0,0-2.3,2.39,5.34,5.34,0,0,0-.35,2.34c.08.5.91,1.32.88,1.82s-.9,1.43-1.2,1.9a12.64,12.64,0,0,0-1.15,1.9,25.37,25.37,0,0,0-.31,5,22.08,22.08,0,0,1,0,3.45c-.18.76-1.15,2.06-1.41,2.79s-.29,1.93-.53,2.53a9.54,9.54,0,0,1-1.6,2.57,4.2,4.2,0,0,1-1.81,1,5.2,5.2,0,0,1-2.39-.84c-.43-.29-.92-1.25-1.33-1.55a3.7,3.7,0,0,0-1.24-.49c-.38,0-1.13.22-1.51.22a3.75,3.75,0,0,1-1.2-.17c-.57-.26-1.37-1.28-1.9-1.6a19.51,19.51,0,0,0-2.35-.88l-13.2,15.14-1.68,13.38L314.93,72.8l-12-7.89h-2.65L293,72.8h-7.61l-15.77-5.49-6.73,1.34a8.17,8.17,0,0,1-.09,1.4,24.94,24.94,0,0,1-1.59,4c-.57,1.26-1.79,3.75-2.48,5s-2,4.33-3.28,5c-.51.27-1.73,0-2.3,0-.33,0-1.05-.19-1.33,0-.55.37-.79,1.83-1,2.48-.34,1.21-.41,3.79-.89,5a24.6,24.6,0,0,1-3.63,5.31,26.25,26.25,0,0,1-4.6,3.81c-.74.42-2.48.69-3.19,1.15a12.17,12.17,0,0,0-2.93,3.1,15.17,15.17,0,0,0-1.06,4,10.7,10.7,0,0,0,0,1.27c0,.95,0,2,0,2.71,0,1.35.18,4.07,0,5.4-.11.84-.77,2.44-.88,3.28-.19,1.42.16,4.33,0,5.76a64.24,64.24,0,0,1-1.6,6.82c-.48,1.81-1.63,5.4-2.15,7.2-.21.72-.65,2.16-.83,2.89-.3,1.19-.72,3.6-1.06,4.78s-1.23,3.07-1.48,4.13a29.29,29.29,0,0,0-.53,4.67c0,1.27.48,3.8.42,5.08a12.6,12.6,0,0,1-.36,1.83,14.1,14.1,0,0,0-.71,2,4.59,4.59,0,0,0,.47,2.12c.28.4,1.38.66,1.66,1.07a6.66,6.66,0,0,1,.53,2.3,23.22,23.22,0,0,1,0,2.89c0,.77-.19,2.07-.32,3.17-.06.48-.11.92-.15,1.26-.14,1.09-.38,3.29-.59,4.37a24.89,24.89,0,0,1-1,3.48c-.46,1.12-1.86,3.12-2.42,4.19a21.93,21.93,0,0,1-1.54,3.25,12.53,12.53,0,0,1-1.35.94c-.72.6-2,2-2.66,2.66s-1.75,2.3-2.6,2.72c-.4.19-1.42-.09-1.77.17s-.25,1.14-.53,1.36a4.58,4.58,0,0,1-2.37.3,4.81,4.81,0,0,1-2-.47,3.81,3.81,0,0,1-.83-1.36c-.14-.32-.13-1.09-.35-1.36s-1.09-.34-1.36-.59-.66-1.44-1-1.83a7.21,7.21,0,0,0-2.24-1.59,12.78,12.78,0,0,0-2.9,0,12.84,12.84,0,0,0-2.48,0,6.73,6.73,0,0,0-2,1.06,11.05,11.05,0,0,0-1.77,2.25,7.08,7.08,0,0,0-.77,1.94c-.06.58.37,1.72.36,2.3a6.86,6.86,0,0,1-.42,2c-.24.52-1.19,1.25-1.41,1.77a14.66,14.66,0,0,0-.47,3.55,66.47,66.47,0,0,0-.3,7.2c.06,1.17.51,3.5.7,4.66a31.21,31.21,0,0,1,.71,4.07,29.49,29.49,0,0,1-1.18,6c-.29,1-1.12,2.89-1.53,3.83-.29.66-1,1.92-1.24,2.6-.18.52-.12,1.72-.48,2.13s-1.43.37-1.77.71a1.9,1.9,0,0,0-.47,1.18c.06.3.68.62.83.89a2.8,2.8,0,0,1,.3,1.24c-.08.5-.94,1.22-1.07,1.71a4.93,4.93,0,0,0,.12,1.71c.14.59.83,1.65.95,2.24a7.92,7.92,0,0,1,0,2.66c-.12.42-.8,1.06-.89,1.48a11.35,11.35,0,0,0,.36,2.3,25.6,25.6,0,0,1,0,2.77,8.69,8.69,0,0,1-.48,3c-.26.45-1.41.79-1.65,1.24a2.89,2.89,0,0,0-.06,1.72c.12.32,1,.66.95,1s-1.09.77-1.36,1.12a7,7,0,0,0-.89,1.89,33.29,33.29,0,0,0-.3,5.37c-.05,1.76.26,5.29,0,7-.22,1.51-1.45,4.35-1.77,5.84-.26,1.23-.49,3.72-.65,5a34.22,34.22,0,0,1-.41,3.49c-.23.87-1.24,2.42-1.42,3.3s.25,2.92,0,3.84c-.2.76-1.36,2-1.59,2.72-.35,1.14-.1,3.6-.3,4.78-.25,1.57-1.2,4.62-1.65,6.14-.51,1.74-1.72,5.16-2.19,6.91a18.79,18.79,0,0,0-.76,3.48c0,.92.72,2.69.76,3.6a15.1,15.1,0,0,1-.53,4.49,9.52,9.52,0,0,1-1.36,2.13,12.13,12.13,0,0,0-1.47,2.21c-.7,1.7-1.1,5.41-1.51,7.21-.53,2.33-1.62,7-2.3,9.26-.33,1.1-1.24,3.23-1.5,4.34-.44,1.86-.6,5.69-.95,7.56-.8,4.31-3.17,12.76-4.25,17-1.34,5.24-4,15.76-5.46,21-.26.89-.65,2.05-1.08,3.31-.88,2.58-1.93,5.56-2.35,7.4-.28,1.27-.38,3.89-.71,5.14s-1.63,4-2.12,5.4c-.63,1.73-1.65,5.27-2.3,7s-2.41,5.41-3.1,7.26a22.39,22.39,0,0,0-1.06,3.28c-.15.94.2,2.88,0,3.81a7.79,7.79,0,0,1-1.07,2.3c-.35.45-1.39,1-1.77,1.42a14.12,14.12,0,0,0-1.68,2.65,48.75,48.75,0,0,0-1.51,5.14c-.5,1.73-1.49,5.17-2,6.91-.21.8-.48,1.91-.77,3.09-.48,1.95-1,4.1-1.35,5.41-.46,1.67-1.16,5.11-2,6.64-.43.83-2,2.05-2.3,2.93s.23,2.75,0,3.63a14.25,14.25,0,0,1-1.51,2.66,40.34,40.34,0,0,0-2.21,3.45c-.39.9-.48,3-1,3.81-.32.55-1.5,1.23-1.86,1.77s-.67,1.95-1,2.57-1,1.48-1.24,2-.38,1.87-.53,2.48a36.7,36.7,0,0,1-1.06,3.72c-.14.35-.34.77-.58,1.23-.67,1.34-1.62,3-2.17,3.91s-2,2.78-2.48,3.81c-.7,1.55-1.27,5-1.86,6.55s-2.16,4.87-2.92,6.47c-.85,1.79-2.68,5.31-3.55,7.09-1,2.13-3.24,6.36-4.07,8.59-.46,1.25-.86,3.92-1.42,5.13s-2.32,3.28-3,4.43c-1.18,2-3.1,6.16-4.25,8.15-1,1.8-3.22,5.31-4.43,7-.9,1.27-3.17,3.49-3.9,4.87s-1.06,4.33-1.68,5.67a32.41,32.41,0,0,1-2.57,3.9c-1.06,1.47-3.37,4.27-4.52,5.67a40,40,0,0,0-2.92,3.45c-.6,1-1.12,3.39-1.68,4.43s-2.1,2.65-2.66,3.63a28.37,28.37,0,0,0-1.19,2.72l14,11.48A30.39,30.39,0,0,1,80,622.2a20.3,20.3,0,0,1,1.59,3.07,9.35,9.35,0,0,1,.71,2.25,4.08,4.08,0,0,1-.41,2.06c-.32.4-1.51.44-1.83.83-.46.55-.31,2.15-.65,2.78A7.41,7.41,0,0,1,77.71,635c-.74.52-2.51,1.09-3.3,1.53-1.17.65-3.38,2.2-4.49,3s-3.14,2.07-4.07,2.9c-1.42,1.25-3.8,4.22-5.08,5.61-2.6,2.82-7.82,8.47-10.51,11.21-1.56,1.6-4.74,4.74-6.38,6.26-1.32,1.24-4.18,3.48-5.43,4.79s-3.63,4.52-4.84,6a55.68,55.68,0,0,0-4,4.84A12.72,12.72,0,0,0,28.53,684a34.41,34.41,0,0,0-.06,5.56,48.35,48.35,0,0,0,.42,5.37c.22,1.25,1.23,3.64,1.41,4.9a22.89,22.89,0,0,1,0,5.61,6.74,6.74,0,0,1-.94,2.48,9,9,0,0,1-2.72,1.41,19.42,19.42,0,0,0-2.24.71,9.94,9.94,0,0,0-2.3,2.54c-.54.89-.92,3-1.42,3.9a14,14,0,0,1-2.18,2.78,20.57,20.57,0,0,1-3,1.83c-1.35.72-4.22,1.82-5.55,2.6a15.68,15.68,0,0,0-3.36,2.42c-.39.48-.65,1.74-1,2.25A14.65,14.65,0,0,1,0,732.77l34,108.5,27.87,65,9.8,32.64V962.1L82,975.27l-4.31,16.88.74,10,19.66,14.17,2.75,11.69,34.72,97a43.71,43.71,0,0,1,2.3,5.84,46.88,46.88,0,0,1,0,6.91l1.24,8.5,18.78,55.18,4.51,10.89s2.43,8.75,3.1,11.69c.45,2,1.32,5.89,1.51,7.89s-.37,5.88,0,7.79a23.56,23.56,0,0,0,1.42,3.54c.63,1.48,2.05,4.36,2.65,5.85a37.94,37.94,0,0,1,2,5.67,19.61,19.61,0,0,1,.09,5,38.11,38.11,0,0,1-1.95,5.49,30.14,30.14,0,0,0-1.5,3.63,14,14,0,0,0,0,3.54c.14,1.09.93,3.18,1.15,4.25.25,1.23.5,3.73.71,5a54.16,54.16,0,0,0,1.24,6.56,57.46,57.46,0,0,0,3.63,7.44c1,1.83,3.75,5.14,4.54,7.08a26.92,26.92,0,0,1,.94,4.16,2.72,2.72,0,0,0,.79-.21c.41-.23.94-1.08,1.32-1.36s1.15-.53,1.51-.75a5.39,5.39,0,0,0,1.15-.86,7.11,7.11,0,0,0,.75-1.75c.18-.58.21-1.82.44-2.37a17.38,17.38,0,0,1,1.22-1.73c.33-.49.89-1.54,1.24-2,.65-.88,2.18-2.43,2.86-3.28.48-.6,1.28-2,1.82-2.5s1.55-1,1.88-1.44c.22-.33.15-1.22.4-1.53a2.63,2.63,0,0,1,1.06-.55,3.57,3.57,0,0,1,1.13,0c.38.06,1.08.43,1.46.49s1.45,0,1.93,0l.53,0a14.8,14.8,0,0,0,0-2.4c-.13-.77-1-2.17-1.06-3a16.68,16.68,0,0,1,.53-3.36c.29-1.46,1.11-4.32,1.36-5.79s.3-4.91.71-6.5a12.61,12.61,0,0,1,1.77-4.19,12.19,12.19,0,0,1,1.89-1,8.23,8.23,0,0,0,1.89-1.54,9.88,9.88,0,0,0,.94-3.18c.16-1.09-.13-3.29,0-4.37.19-1.5,1.1-4.39,1.48-5.85s1.39-4.43,1.59-6c.14-1,0-3.15,0-4.2,0-1.37.07-4.12,0-5.49a29.88,29.88,0,0,1-.35-3.54,11.39,11.39,0,0,1,.94-2.78c.44-.84,1.77-2.24,2.25-3.07a23.77,23.77,0,0,0,1.24-2.83,35,35,0,0,0,.94-3.37c.3-1.4.42-4.3.83-5.66a48.22,48.22,0,0,1,2.13-4.55c.63-1.38,2-4.12,2.48-5.55.67-1.85,1.46-5.73,2.18-7.56.5-1.28,2-3.6,2.48-4.9a25.88,25.88,0,0,0,.94-4.55,26.57,26.57,0,0,0,0-4.37c-.11-1.1-.77-3.22-.94-4.31-.25-1.56-.57-4.73-.65-6.31a44.85,44.85,0,0,1,.06-7.33c.15-.86,1-2.43,1.12-3.3s-.42-2.48-.35-3.31a9.2,9.2,0,0,1,.76-2.83,18.37,18.37,0,0,1,2.13-2.19,15,15,0,0,0,2.07-2.36,13.91,13.91,0,0,0,.76-3.72c.14-1.37-.08-4.12,0-5.49.16-2.35.44-4.7.83-7a62.89,62.89,0,0,1,2.66-9.62c.47-1.1,1.87-3,2.48-4.08,1-1.66,2.7-5.15,3.9-6.67.91-1.17,3.21-3.07,4.25-4.13s3.41-3.21,4.19-4.55a19.49,19.49,0,0,0,1.3-4.07,33.22,33.22,0,0,0,.71-4.43,54.16,54.16,0,0,0-.36-7c-.26-2.37-1.08-7.07-1.65-9.39-.46-1.9-1.77-5.58-2.36-7.44s-2-5.3-2.3-7.14a18.26,18.26,0,0,1-.24-4.55c.17-1.09,1.25-3.07,1.54-4.13.24-.87.45-2.66.65-3.54.28-1.27,1.13-3.74,1.3-5,.21-1.63-.18-4.93.06-6.56a24.41,24.41,0,0,1,1.12-3.9,37.56,37.56,0,0,1,2.24-4.6c.63-1,2.4-2.75,2.89-3.84a19,19,0,0,0,1.13-5.31,34.64,34.64,0,0,0-.83-6.8c-.29-1.27-1.37-3.68-1.65-5-.18-.8-.08-2.48-.36-3.24s-1.32-1.82-1.65-2.48-.84-2.35-1.12-3.13a23.61,23.61,0,0,1-1.18-3.37,23.08,23.08,0,0,1,.3-4.84,30.27,30.27,0,0,1,1-4.31c.4-1.14,1.57-3.26,2.06-4.37s1.56-3.42,2-4.6c.34-1,.73-3.15,1-4.2s.9-3.1,1.18-4.13c.51-1.87,1.5-5.61,2-7.5.34-1.43.93-4.3,1.24-5.73s1.19-4.58,1.36-6.14c.14-1.32-.1-4,0-5.31a33.3,33.3,0,0,1,.65-4.08,27.84,27.84,0,0,1,4.25-9.86c.53-.84,1.82-2.38,2.3-3.24s.93-2.28,1.3-3c.69-1.4,2.38-4,3.07-5.43.57-1.16,1.52-3.58,2-4.78.35-.85.92-2.62,1.36-3.43s1.92-2.69,2.53-3.6,1.63-2.53,2.19-3.36c.41-.61,1.29-1.79,1.65-2.42a37.76,37.76,0,0,0,2.54-5.43,41.79,41.79,0,0,0,1-6c.17-1.54.15-4.65.3-6.2A13.77,13.77,0,0,1,294,873.23a36.26,36.26,0,0,1,2.83-3.49c.7-.71,2.38-1.87,3.07-2.6a17,17,0,0,0,2.42-3.18,14.25,14.25,0,0,0,.89-3.25,11.25,11.25,0,0,0,0-2.84c-.21-1-1.49-2.66-1.66-3.66-.25-1.52.31-4.62.59-6.14.19-1,.81-2.87,1.07-3.84s.74-3.11,1.06-4.13c.23-.72.8-2.12,1.06-2.83a24.12,24.12,0,0,1,1.18-3.31,14.92,14.92,0,0,1,2.72-2.78c.48-.36,1.63-.83,2.13-1.18,1.28-.88,3.61-3,4.78-4a37.24,37.24,0,0,0,4.31-4,12.18,12.18,0,0,0,1.53-3.19,30.08,30.08,0,0,0,.36-6.43c-.05-1.52-.65-4.51-.77-6a26.69,26.69,0,0,1-.12-4.73,48.59,48.59,0,0,1,2.13-6,61.33,61.33,0,0,1,2.24-6.62c.47-.88,1.92-2.32,2.42-3.18.74-1.28,1.61-4.13,2.3-5.43.59-1.1,2.05-3.15,2.72-4.2.5-.79,1.6-2.34,2-3.19a20.31,20.31,0,0,0,1.41-4c.38-2.22,0-6.75,0-9,0-1.9.44-5.77,0-7.62s-2.48-5.16-3.42-6.82-3-4.73-4-6.29c-1.26-1.94-3.85-5.78-5.13-7.7a49.82,49.82,0,0,1-3.37-5.05,26.6,26.6,0,0,1-1.33-4.87,20.63,20.63,0,0,1-.26-4.08,44,44,0,0,1,2.3-8.5,52,52,0,0,1,3.8-7.52c.88-1.33,3.22-3.54,4.08-4.88,1.65-2.6,3.87-8.39,5.22-11.16.86-1.76,2.9-5.14,3.55-7a56,56,0,0,0,1.5-7.26c.63-4,1.55-11.94,1.77-15.94.17-3-.21-9.11,0-12.13.06-.78.17-1.77.32-2.85.36-2.72.92-6,1.19-8,.53-3.76,1.38-11.33,2.12-15.06.42-2.06,1.7-6.08,2.13-8.14.49-2.37,1-7.19,1.51-9.57.74-3.86,2.62-11.5,3.54-15.32.43-1.8,1.2-5.42,1.77-7.18,1.06-3.29,4-9.58,5.14-12.84.54-1.53,1.4-4.67,1.94-6.2.48-1.35,1.86-3.91,2.13-5.31a7.46,7.46,0,0,0,0-3.19c-.35-.8-2.12-1.64-2.57-2.39a12.55,12.55,0,0,1-1-3.9c-.14-1.39.52-4.21.26-5.58-.2-1.07-1.54-2.92-1.77-4-.11-.54-.32-1.76,0-2.21s2.08-.29,2.48-.8a4.29,4.29,0,0,0,.18-2.48,21,21,0,0,0-1.77-4.34,19.79,19.79,0,0,1-1.42-2.39,5.57,5.57,0,0,1,0-2.3c.22-.76,1.65-1.88,1.68-2.66s-1.06-2.3-1.5-3c-.64-1-2.3-2.85-2.92-3.9a19.55,19.55,0,0,1-2-4.43,10.72,10.72,0,0,1,.09-4,7.57,7.57,0,0,1,1.59-2.48c.59-.54,2.24-1,2.83-1.5a10.21,10.21,0,0,0,2.22-3.46,4.85,4.85,0,0,0,0-2.21c-.23-.6-1.44-1.35-1.68-1.95a7.46,7.46,0,0,1-.18-2.74,12.18,12.18,0,0,1,.44-1.6c.24-.76,1.09-2.21,1.07-3a9.5,9.5,0,0,0-1.15-2.75c-.39-.76-1.48-2.12-1.78-2.92-.18-.48,0-1.7-.35-2s-1.8.28-2.3,0a6,6,0,0,1-1.86-2.92,7.44,7.44,0,0,1,.09-2.66c.13-.65,1-1.81,1-2.48s-.75-1.56-.88-2.12c-.18-.78.1-2.44-.18-3.19-.2-.55-1.38-1.28-1.42-1.86-.05-.76,1.19-2,1.51-2.66a22.57,22.57,0,0,0,1.06-2.92c.18-.71.09-2.27.44-2.92.44-.8,2.17-1.69,2.75-2.39a8,8,0,0,0,1.59-2.66,7.23,7.23,0,0,0-.53-3c-.19-.49-1-1.27-1.15-1.77a9.51,9.51,0,0,1,0-3.28,20.91,20.91,0,0,1,1.51-3.63,21.58,21.58,0,0,0,1.77-3.1,8,8,0,0,0-.18-3c-.16-.58-1.2-1.52-1.15-2.13a2.5,2.5,0,0,1,1.06-1.41c.52-.26,1.84.34,2.3,0s.52-1.25.54-1.69a16.68,16.68,0,0,0-.54-2.3c-.22-1.38-.82-4.21-.53-5.58a9.19,9.19,0,0,1,1.33-2.39c.46-.63,1.84-1.57,2.13-2.3a4.35,4.35,0,0,0,0-2c-.15-.55-1.17-1.39-1.16-1.95s.88-1.26,1.16-1.69,1.33-1.5,1.32-2.12-1.31-1.43-1.32-2,1.23-1.57,1.32-2.21a4,4,0,0,0-.62-2.39c-.45-.54-2.21-.55-2.56-1.16a3.29,3.29,0,0,1,.26-2.48c.39-.6,2.2-.76,2.48-1.41.35-.82-.43-2.69-.88-3.46s-1.93-1.5-2.3-2.21a3.91,3.91,0,0,1-.36-2.13c.22-.74,1.76-1.58,2-2.3a8.61,8.61,0,0,0,.09-4.16,4.46,4.46,0,0,0-1-1.42c-.33-.32-1.44-.53-1.59-1s.43-1.15.62-1.51c.32-.59,1.39-1.55,1.51-2.21a5.6,5.6,0,0,0-.62-2.57c-.34-.63-1.68-1.46-1.95-2.12a12.18,12.18,0,0,1-.18-4.17c.1-1.28.85-3.77,1-5.05.09-1-.33-3,0-3.9.22-.62,1.51-1.4,1.68-2,.27-1.05-.52-3.21-.8-4.25-.23-.84-.88-2.46-1.15-3.28a23.47,23.47,0,0,1-.71-2.3c-.1-.51-.24-1.3-.33-2.08a7.63,7.63,0,0,1,0-1.91c.1-.57.9-1.52,1-2.1.2-1-.5-3.2-.3-4.25a10.76,10.76,0,0,1,1-2,12.76,12.76,0,0,0,1.18-2.06c.12-.44-.16-1.4,0-1.83.3-.78,2.28-1.65,2.25-2.48,0-.65-1.61-1.19-1.89-1.77a6.18,6.18,0,0,1-.18-2.42c.06-.6.53-1.72.65-2.3a11.84,11.84,0,0,0,.36-2.78,31.73,31.73,0,0,0-1.3-3.13,9.52,9.52,0,0,1-.48-2.36c0-.48.65-1.35.59-1.83a5.19,5.19,0,0,0-1.12-1.89c-.35-.43-1.43-1-1.65-1.48s-.35-1.6,0-1.95,1.79.38,2.18,0,.08-2.12.12-2.83.47-2.1.15-2.69c-.23-.42-1.43-.56-1.69-1s-.41-1.52-.08-1.86,1.33,0,1.77,0a12.27,12.27,0,0,0,3.81-1,5.17,5.17,0,0,0,1.94-2.32,3.94,3.94,0,0,0-.7-1.95c-.44-.68-1.92-1.58-2.3-2.3a11.45,11.45,0,0,1-.89-4.16c0-1.36,1.47-4,1.15-5.31-.24-1-2.53-2.1-2.57-3.1,0-.69,1.52-1.54,1.6-2.22a5.74,5.74,0,0,0-1.15-2.83c-.31-.42-1.33-.89-1.6-1.33a6.3,6.3,0,0,1-.71-3.19,5.49,5.49,0,0,1,1.86-2.92,4.28,4.28,0,0,1,1.95,0c.46.06,1.31.47,1.77.53a7.39,7.39,0,0,0,2.3-.09,6,6,0,0,0,2.13-1.33c.63-.75,1.12-2.72,1.51-3.63a29.2,29.2,0,0,1,1.68-3.9c.72-1.08,2.43-3.21,3.63-3.72.86-.36,2.79-.06,3.72,0,1.27.08,3.78.64,5.05.62a16.19,16.19,0,0,0,4-.62,14.75,14.75,0,0,0,2.58-1.28,4.84,4.84,0,0,0,1.14-.93c.67-.84.85-3.12,1.33-4.08a11.34,11.34,0,0,1,2.13-3c1.55-1.22,5.51-2.19,7.35-2.92s5.72-1.73,7.26-2.92,3.2-4.62,4.43-6c.24-.27.65-.64,1.06-1a4.46,4.46,0,0,0,3.87-1.91c1.52-1.89,4.28-5.93,6.08-7.56,1.45-1.31,5.58-2.56,6.56-4.25.3-.52-.13-1.87.12-2.42.9-2,5.55-4.15,6.31-6.23.43-1.17-.58-3.72-.44-5a36.24,36.24,0,0,1,1.6-4.78c.42-1.37,1.19-4.12,1.59-5.49s1.26-4.48,1.77-5.94c.34-1,1.06-2.89,1.51-3.81.63-1.31,2.2-3.78,2.92-5.05,1.12-2,4.43-7.88,4.43-7.88l5.22-5.22,3.55-6.56Z"/></g></g></svg>