<svg id="Layer_1" data-name="Layer 1" xmlns="http://www.w3.org/2000/svg" viewBox="0 0 640 448"><defs><style>.cls-1{fill:#0c9;}</style></defs><path class="cls-1" d="M624,384H608c-26,0-45.8-8.42-56.09-17.9-8.9-8.21-19.66-14.1-31.77-14.1h-16.3c-12.11,0-22.87,5.89-31.77,14.1C461.8,375.58,442,384,416,384s-45.8-8.42-56.09-17.9c-8.9-8.21-19.66-14.1-31.77-14.1h-16.3c-12.11,0-22.87,5.89-31.77,14.1C269.8,375.58,250,384,224,384s-45.8-8.42-56.09-17.9c-8.9-8.21-19.66-14.1-31.77-14.1h-16.3c-12.11,0-22.87,5.89-31.77,14.1C77.8,375.58,58,384,32,384H16A16,16,0,0,0,0,400v32a16,16,0,0,0,16,16H32c38.62,0,72.72-12.19,96-31.84C151.28,435.82,185.38,448,224,448s72.72-12.19,96-31.84C343.28,435.82,377.38,448,416,448s72.72-12.19,96-31.84C535.28,435.82,569.38,448,608,448h16a16,16,0,0,0,16-16V400A16,16,0,0,0,624,384ZM224,352V256H416v96c19.12,0,30.86-6.16,34.39-9.42A86.44,86.44,0,0,1,480,324.51V96a32,32,0,0,1,64,0v16a16,16,0,0,0,16,16h32a16,16,0,0,0,16-16V96a96,96,0,0,0-192,0v96H224V96a32,32,0,0,1,64,0v16a16,16,0,0,0,16,16h32a16,16,0,0,0,16-16V96a96,96,0,0,0-192,0V324.5a86.6,86.6,0,0,1,29.61,18.07C193.14,345.84,204.88,352,224,352Z"/></svg>