<svg xmlns="http://www.w3.org/2000/svg" viewBox="0 0 261.68 261.68"><defs><style>.cls-1{fill:#e9ecee;}.cls-2{fill:#0c9;}</style></defs><g id="Layer_2" data-name="Layer 2"><g id="Layer_1-2" data-name="Layer 1"><circle class="cls-1" cx="130.84" cy="130.84" r="130.84"/><g id="Group_128" data-name="Group 128"><path id="Path_28" data-name="Path 28" class="cls-2" d="M129.44,195.46q-5.67-5.42-15.16-5.09t-14.64,6.12a19,19,0,0,0-5,14,18.76,18.76,0,0,0,6,13.52q5.66,5.34,15,5T130.38,223a18.72,18.72,0,0,0,5-13.9A19,19,0,0,0,129.44,195.46Z"/><path id="Path_29" data-name="Path 29" class="cls-2" d="M131.34,150.91q2.31-7.53,9.47-14.39,8.43-8.34,15.47-16.44a72.79,72.79,0,0,0,11.29-17.21,44.91,44.91,0,0,0,3.84-20.73q-.85-24.78-16.61-37.57t-43-11.85A75.19,75.19,0,0,0,82.1,39.48,47.52,47.52,0,0,0,61.47,57.61Q54,69.55,54.38,87.5l36.38-1.26q-.29-12.13,6.52-17.78a25,25,0,0,1,15.51-5.94q10.53-.37,16.29,5.37T135.21,85a26.27,26.27,0,0,1-2.35,12.23,46.52,46.52,0,0,1-7.09,10.67q-4.51,5.16-10.39,10.78a71.74,71.74,0,0,0-11.65,14.4A47.7,47.7,0,0,0,97.87,149a103.18,103.18,0,0,0-1.33,20.77l32.57-1.12A58.8,58.8,0,0,1,131.34,150.91Z"/><path id="Path_30" data-name="Path 30" class="cls-2" d="M197.41,142.46q-4.71-7.41-16.07-11a33.74,33.74,0,0,0-13.19-1.67A20.22,20.22,0,0,0,157,134.14q-4.81,3.84-7.39,11.5l16.62,5.3q1.57-4.58,4.67-5.82a8.81,8.81,0,0,1,6.11-.27,7.78,7.78,0,0,1,5,3.85c.86,1.78.84,4.06-.05,6.86a9.42,9.42,0,0,1-2.45,4,19.77,19.77,0,0,1-4.12,3,53.78,53.78,0,0,1-5.52,2.65,24.87,24.87,0,0,0-6.44,3.94A20.82,20.82,0,0,0,159,174.8a45,45,0,0,0-3.37,8.08l14.44,4.61a22.53,22.53,0,0,1,3.4-6.61,14.69,14.69,0,0,1,5.84-4.19c3-1.42,5.83-2.8,8.41-4.17a28.44,28.44,0,0,0,6.77-4.91,18.13,18.13,0,0,0,4.4-7.55Q202.13,149.88,197.41,142.46Z"/><path id="Path_31" data-name="Path 31" class="cls-2" d="M160.67,192.68a9.61,9.61,0,0,0-7.51.35,9.35,9.35,0,0,0-4,12.43,10.8,10.8,0,0,0,13.43,4.28,9.35,9.35,0,0,0,4-12.42A9.58,9.58,0,0,0,160.67,192.68Z"/><path id="Path_32" data-name="Path 32" class="cls-2" d="M195.36,105.09a8.34,8.34,0,0,1-2.22.23,18.17,18.17,0,0,1-2.76-.27,8.22,8.22,0,0,0-3.35.09,10.54,10.54,0,0,0-3.18,1.36A23.94,23.94,0,0,0,180.6,109l5.38,5.92a10.4,10.4,0,0,1,2.91-1.84,7.23,7.23,0,0,1,3.3-.23c1.59.14,3,.25,4.36.34a12.11,12.11,0,0,0,3.75-.31,7.9,7.9,0,0,0,3.43-2c2.58-2.35,3.76-4.93,3.56-7.76s-1.61-5.69-4.23-8.57a17,17,0,0,0-5.17-4,9.65,9.65,0,0,0-5.77-.89A11.89,11.89,0,0,0,186,92.94l6.39,7a4,4,0,0,1,2.9-1.24,3.17,3.17,0,0,1,2.12,1,3,3,0,0,1,1,2.22,3.6,3.6,0,0,1-1.41,2.3A3.66,3.66,0,0,1,195.36,105.09Z"/><path id="Path_33" data-name="Path 33" class="cls-2" d="M173.93,120.58a5.09,5.09,0,0,0,3.57,1.84,5,5,0,0,0,5.15-4.68,5.77,5.77,0,0,0-5.06-5.56,4.92,4.92,0,0,0-5.15,4.69A5.09,5.09,0,0,0,173.93,120.58Z"/></g></g></g></svg>