<?xml version="1.0" encoding="utf-8"?>
<!-- Generator: Adobe Illustrator 25.2.3, SVG Export Plug-In . SVG Version: 6.00 Build 0)  -->
<svg version="1.1" id="Layer_1" xmlns="http://www.w3.org/2000/svg" xmlns:xlink="http://www.w3.org/1999/xlink" x="0px" y="0px"
	 viewBox="0 0 60.1 55.5" style="enable-background:new 0 0 60.1 55.5;" xml:space="preserve">
<style type="text/css">
	.st0{fill:#00CC99;}
	.st1{fill:#E9ECEE;}
	.st2{fill:#FFFFFF;}
	.st3{fill:#CCCCCC;}
	.st4{fill:#23CC99;}
	.st5{fill:#E03228;}
	.st6{fill:#ADE3D4;}
	.st7{fill:#0086D4;}
	.st8{opacity:0.3;}
	.st9{clip-path:url(#SVGID_2_);}
	.st10{fill:#2B5860;}
	.st11{clip-path:url(#SVGID_4_);}
	.st12{clip-path:url(#SVGID_6_);}
	.st13{fill:url(#Rectangle_16_1_);}
	.st14{fill:#3D3D3D;}
	.st15{fill:#515252;}
	.st16{fill:#34A853;}
	.st17{fill:#FBBC04;}
	.st18{fill:#4285F4;}
	.st19{fill:#1A73E8;}
	.st20{fill:#EA4335;}
</style>
<g id="Group_40" transform="translate(0)">
	<g id="Group_33" transform="translate(45.581 52.726)" class="st8">
		<g id="Group_32" transform="translate(0 0)">
			<g>
				<defs>
					<rect id="SVGID_1_" x="-11.6" y="0" width="13.5" height="2.7"/>
				</defs>
				<clipPath id="SVGID_2_">
					<use xlink:href="#SVGID_1_"  style="overflow:visible;"/>
				</clipPath>
				<g id="Group_31" class="st9">
					<path id="Path_1" class="st10" d="M1.9,1.4c0,0.8-3,1.4-6.8,1.4s-6.8-0.6-6.8-1.4S-8.5,0-4.8,0S1.9,0.6,1.9,1.4"/>
				</g>
			</g>
		</g>
	</g>
	<g id="Group_36" transform="translate(23.029 52.726)" class="st8">
		<g id="Group_35" transform="translate(0 0)">
			<g>
				<defs>
					<rect id="SVGID_3_" x="-11.6" y="0" width="13.5" height="2.7"/>
				</defs>
				<clipPath id="SVGID_4_">
					<use xlink:href="#SVGID_3_"  style="overflow:visible;"/>
				</clipPath>
				<g id="Group_34" class="st11">
					<path id="Path_2" class="st10" d="M1.9,1.4c0,0.8-3,1.4-6.8,1.4s-6.8-0.6-6.8-1.4S-8.5,0-4.8,0S1.9,0.6,1.9,1.4"/>
				</g>
			</g>
		</g>
	</g>
	<g id="Group_38" transform="translate(13.134 1.577)">
		<g>
			<defs>
				<path id="SVGID_5_" d="M17.4,0.2c-4.7,0.7-9.2,2.6-13,5.5c-3.9,2.9-6.6,7.2-7.6,12c-0.3,1.5-0.4,3-0.5,4.5
					c-0.5,6.3-1.1,10.1-6.3,10.1c-0.9,0-1.6,0.7-1.6,1.6c0,0.3,0.1,0.7,0.3,0.9C-4.3,44,7.6,45.1,15.9,45.1h0.6h1.2h0.9
					c3.9,0,8-0.2,11.7-1.6c6.5-2.4,12-7.9,14-13.9c2.3-6.5,1.2-13.8-2.9-19.4C35.8,2.8,26.6-1,17.4,0.2"/>
			</defs>
			<clipPath id="SVGID_6_">
				<use xlink:href="#SVGID_5_"  style="overflow:visible;"/>
			</clipPath>
			<g id="Group_37" transform="translate(0 0)" class="st12">
				
					<radialGradient id="Rectangle_16_1_" cx="-5545.729" cy="3990.1484" r="0.724" gradientTransform="matrix(-0.3447 58.4271 -79.6387 -0.4698 315864.375 326053.3125)" gradientUnits="userSpaceOnUse">
					<stop  offset="0" style="stop-color:#F5F6F7"/>
					<stop  offset="5.200000e-02" style="stop-color:#F5F6F7"/>
					<stop  offset="0.736" style="stop-color:#CBD6DB"/>
					<stop  offset="1" style="stop-color:#EDEFF1"/>
				</radialGradient>
				<polygon id="Rectangle_16" class="st13" points="-11.9,45.1 -11.7,-0.3 46.8,0 46.5,45.4 				"/>
			</g>
		</g>
	</g>
	<g id="Group_39" transform="translate(11.558)">
		<path id="Path_4" class="st14" d="M22.4,3.2c14.2,0,26.9,12.7,22,27.6c-2,6-7.5,10.8-13,12.9c-3.6,1.4-7.9,1.5-11.1,1.5
			c-0.6,0-1.1,0-1.6,0h-1.1c-8.1,0-19.4-1-25.9-9.6c8.9,0,7.2-10,8.3-15.9c1.8-9,10.7-15.1,19.3-16.2C20.3,3.2,21.3,3.2,22.4,3.2
			 M22.4,0c-1.2,0-2.4,0.1-3.6,0.2C13.8,0.9,9,2.9,5,6.1C0.8,9.2-2.1,13.8-3.2,19c-0.3,1.6-0.4,3.1-0.5,4.7c-0.2,2.5-0.4,5-1.2,6.7
			c-0.5,1.1-1.3,1.9-3.5,1.9c-1.7,0-3.2,1.4-3.2,3.2c0,0.7,0.2,1.4,0.6,1.9c7.4,9.8,19.7,10.9,28.4,10.9h0.6h2.1
			c4,0,8.3-0.2,12.2-1.7c3.3-1.3,6.4-3.2,8.9-5.7c2.7-2.5,4.8-5.7,6-9.2c1.2-3.6,1.5-7.4,0.9-11.2c-0.6-3.5-2-6.7-4.1-9.6
			c-2.5-3.4-5.7-6.1-9.4-8C30.9,1,26.7,0,22.4,0"/>
		<path id="Path_5" class="st14" d="M18.3,18.9c0,1.7-1.4,3-3,3c-1.7,0-3-1.4-3-3s1.4-3,3-3c0,0,0,0,0,0
			C17,15.8,18.3,17.2,18.3,18.9"/>
		<path id="Path_6" class="st14" d="M32.5,18.9c0,1.7-1.4,3-3,3c-1.7,0-3-1.4-3-3s1.4-3,3-3c0,0,0,0,0,0
			C31.1,15.8,32.5,17.2,32.5,18.9"/>
		<path id="Path_7" class="st14" d="M22.3,35.1c-5.1,0-9.8-3.4-10.6-7.8c-0.2-0.9,0.4-1.7,1.2-1.8s1.7,0.4,1.8,1.2
			c0.5,2.6,3.6,5.3,7.7,5.2c4.3-0.1,7.1-2.7,7.7-5.2c0.2-0.8,1-1.4,1.9-1.2c0.8,0.2,1.4,1,1.2,1.9l0,0c-0.6,2.1-1.9,4-3.7,5.3
			c-2.1,1.5-4.5,2.3-7,2.3C22.5,35.1,22.4,35.1,22.3,35.1"/>
		<path id="Path_8" class="st14" d="M0.8,47.9c0-3.5,2.8-6.3,6.3-6.3s6.3,2.8,6.3,6.3s-2.8,6.3-6.3,6.3c0,0,0,0,0,0
			C3.6,54.1,0.8,51.3,0.8,47.9L0.8,47.9"/>
		<path id="Path_9" class="st15" d="M5,47.9c0-1.1,0.9-2.1,2.1-2.1c1.1,0,2.1,0.9,2.1,2.1C9.1,49,8.2,50,7,50C5.9,50,5,49,5,47.9
			L5,47.9"/>
		<path id="Path_10" class="st14" d="M22.5,47.9c0-3.5,2.8-6.3,6.3-6.3s6.3,2.8,6.3,6.3s-2.8,6.3-6.3,6.3c0,0,0,0,0,0
			C25.3,54.1,22.5,51.3,22.5,47.9L22.5,47.9"/>
		<path id="Path_11" class="st15" d="M26.7,47.9c0-1.1,0.9-2.1,2.1-2.1c1.1,0,2.1,0.9,2.1,2.1c0,1.1-0.9,2.1-2.1,2.1
			S26.7,49,26.7,47.9L26.7,47.9"/>
	</g>
</g>
</svg>
