<svg xmlns="http://www.w3.org/2000/svg" viewBox="0 0 221.15 294.87"><defs><style>.cls-1{fill:#0c9;}</style></defs><g id="Layer_2" data-name="Layer 2"><g id="Layer_1-2" data-name="Layer 1"><path class="cls-1" d="M110.58,0A110.58,110.58,0,0,0,0,110.58c0,44.58,15.53,57,99.21,178.34a13.83,13.83,0,0,0,22.73,0c83.68-121.31,99.21-133.76,99.21-178.34A110.58,110.58,0,0,0,110.58,0Zm0,178.2a49.76,49.76,0,0,1-49.76-49.76c0-20.06,7-25.66,44.64-80.25a6.22,6.22,0,0,1,10.23,0c37.65,54.59,44.64,60.19,44.64,80.25A49.75,49.75,0,0,1,110.58,178.2Z"/></g></g></svg>