<svg xmlns="http://www.w3.org/2000/svg" viewBox="0 0 355.22 421.48"><defs><style>.cls-1{fill:#0c9;}</style></defs><g id="Layer_2" data-name="Layer 2"><g id="Layer_1-2" data-name="Layer 1"><path class="cls-1" d="M177,0A110.58,110.58,0,0,0,66.37,110.58c0,44.58,15.53,57,99.21,178.34a13.83,13.83,0,0,0,22.73,0C272,167.61,287.52,155.16,287.52,110.58A110.58,110.58,0,0,0,177,0Zm0,178.2a49.76,49.76,0,0,1-49.76-49.76c0-20.06,7-25.66,44.64-80.25a6.22,6.22,0,0,1,10.23,0c37.66,54.59,44.64,60.19,44.64,80.25A49.75,49.75,0,0,1,177,178.2Z"/><polygon class="cls-1" points="0 332.14 21.78 332.14 21.78 396.27 35.27 396.27 35.27 332.14 57.05 332.14 57.05 320.09 0 320.09 0 332.14"/><path class="cls-1" d="M70.3,355.69V344.63H57.48v51.64H70.41v-18c0-14.49,4.65-22.89,13-22.89A16.14,16.14,0,0,1,91,357.24l2.54-12.16a18.82,18.82,0,0,0-8.4-1.77C78.71,343.31,73.07,347.07,70.3,355.69Z"/><path class="cls-1" d="M107,318.54c-4.54,0-8.41,3.32-8.41,7.85s3.87,7.85,8.41,7.85a8,8,0,0,0,8.29-7.85C115.32,321.86,111.67,318.54,107,318.54Z"/><rect class="cls-1" x="100.61" y="344.63" width="12.83" height="51.64"/><path class="cls-1" d="M156.68,343.31c-6.19,0-13.6,2.65-17.13,8.18v-6.86H126.72v76.85h12.83V389.42c3.53,5.52,10.72,8.18,17.24,8.18,13.6,0,25.32-10.62,25.32-27.09S170.28,343.31,156.68,343.31Zm-2,42.35a15.21,15.21,0,0,1,0-30.41c8,0,14.6,6.74,14.6,15.26A14.79,14.79,0,0,1,154.69,385.66Z"/><path class="cls-1" d="M222.59,343.31c-6.2,0-13.6,2.65-17.14,8.18v-6.86H192.62v76.85h12.83V389.42c3.54,5.52,10.72,8.18,17.25,8.18C236.3,397.6,248,387,248,370.51S236.19,343.31,222.59,343.31Zm-2,42.35a15.21,15.21,0,0,1,0-30.41c8,0,14.59,6.74,14.59,15.26A14.78,14.78,0,0,1,220.6,385.66Z"/><path class="cls-1" d="M282.56,343.31c-14.81,0-27.09,10.61-27.09,27.09,0,16.14,11.72,27.2,27.09,27.2,9.4,0,18.58-4.2,23.33-11.72l-8.62-6.53c-3,4.21-8.41,6.64-13.93,6.64-7.74,0-13.27-3.87-14.71-11.06h40c.11-1.88.22-3.54.22-5C308.88,353.81,297.27,343.31,282.56,343.31ZM268.63,366c1.55-7.85,7.19-11.27,14-11.27,7.19,0,12.72,4.2,13.49,11.27Z"/><path class="cls-1" d="M346.82,343.31c-6.42,0-12.06,3.76-14.82,12.38V344.63H319.17v51.64h12.94v-18c0-14.49,4.64-22.89,13.05-22.89a16.14,16.14,0,0,1,7.52,1.88l2.54-12.16A18.86,18.86,0,0,0,346.82,343.31Z"/></g></g></svg>