<svg xmlns="http://www.w3.org/2000/svg" viewBox="0 0 355.22 432.85"><defs><style>.cls-1{fill:#0c9;}</style></defs><g id="Layer_2" data-name="Layer 2"><g id="Layer_1-2" data-name="Layer 1"><path class="cls-1" d="M176.94,309.61h0a21.21,21.21,0,0,0,17.43-9.13c14.91-21.62,27.46-39.5,38.53-55.27,50.08-71.35,62-88.3,62-127.26A117.95,117.95,0,1,0,59,118c0,39,11.9,55.91,62,127.26,11.07,15.77,23.63,33.65,38.54,55.27A21.17,21.17,0,0,0,176.94,309.61ZM73.74,118a103.21,103.21,0,1,1,206.41,0c0,34.3-9,47.2-59.31,118.79-11.09,15.8-23.66,33.7-38.59,55.35a6.45,6.45,0,0,1-10.6,0c-14.94-21.66-27.51-39.56-38.6-55.36C82.8,165.15,73.74,152.25,73.74,118Z"/><path class="cls-1" d="M226.7,135.81c0-20.06-7-25.66-44.64-80.25a6.22,6.22,0,0,0-10.23,0c-37.65,54.59-44.64,60.19-44.64,80.25a49.76,49.76,0,1,0,99.51,0Zm-84.77,0c0-11.44,2.44-15.29,24.61-46.89,3.17-4.51,6.6-9.4,10.41-14.86,3.8,5.46,7.23,10.35,10.4,14.86,22.18,31.6,24.61,35.45,24.61,46.89a35,35,0,1,1-70,0Z"/><polygon class="cls-1" points="0 343.51 21.78 343.51 21.78 407.64 35.27 407.64 35.27 343.51 57.05 343.51 57.05 331.46 0 331.46 0 343.51"/><path class="cls-1" d="M70.3,367.06V356H57.48v51.63H70.41v-18c0-14.48,4.65-22.89,13-22.89A16.12,16.12,0,0,1,91,368.61l2.54-12.16a18.82,18.82,0,0,0-8.4-1.77C78.71,354.68,73.07,358.44,70.3,367.06Z"/><path class="cls-1" d="M107,329.91c-4.54,0-8.41,3.32-8.41,7.85s3.87,7.85,8.41,7.85a8,8,0,0,0,8.29-7.85C115.32,333.23,111.67,329.91,107,329.91Z"/><rect class="cls-1" x="100.61" y="356.01" width="12.83" height="51.64"/><path class="cls-1" d="M156.68,354.68c-6.19,0-13.6,2.65-17.13,8.18V356H126.72v76.84h12.83V400.79c3.53,5.53,10.72,8.18,17.24,8.18,13.6,0,25.33-10.62,25.33-27.09S170.28,354.68,156.68,354.68Zm-2,42.35a15.21,15.21,0,0,1,0-30.41c8,0,14.6,6.75,14.6,15.26A14.78,14.78,0,0,1,154.69,397Z"/><path class="cls-1" d="M222.59,354.68c-6.2,0-13.6,2.65-17.14,8.18V356H192.62v76.84h12.83V400.79C209,406.32,216.17,409,222.7,409c13.6,0,25.32-10.62,25.32-27.09S236.19,354.68,222.59,354.68Zm-2,42.35a15.21,15.21,0,0,1,0-30.41c8,0,14.59,6.75,14.59,15.26A14.78,14.78,0,0,1,220.6,397Z"/><path class="cls-1" d="M282.56,354.68c-14.81,0-27.09,10.61-27.09,27.09,0,16.14,11.72,27.2,27.09,27.2,9.4,0,18.58-4.2,23.33-11.72l-8.62-6.52c-3,4.2-8.41,6.63-13.93,6.63-7.74,0-13.27-3.87-14.71-11.06h40c.11-1.88.22-3.54.22-5C308.88,365.18,297.27,354.68,282.56,354.68Zm-13.93,22.67c1.55-7.85,7.19-11.28,14-11.28,7.19,0,12.72,4.2,13.49,11.28Z"/><path class="cls-1" d="M346.82,354.68c-6.42,0-12.05,3.76-14.82,12.38V356H319.17v51.63h12.94v-18c0-14.48,4.64-22.89,13.05-22.89a16.14,16.14,0,0,1,7.52,1.88l2.54-12.16A18.86,18.86,0,0,0,346.82,354.68Z"/></g></g></svg>