<svg xmlns="http://www.w3.org/2000/svg" viewBox="0 0 235.89 309.61"><defs><style>.cls-1{fill:#0c9;}</style></defs><g id="Layer_2" data-name="Layer 2"><g id="Layer_1-2" data-name="Layer 1"><path class="cls-1" d="M118,0A118.08,118.08,0,0,0,0,118c0,39,11.9,55.91,62,127.26,11.08,15.77,23.63,33.65,38.54,55.27A21.19,21.19,0,0,0,118,309.61h0a21.21,21.21,0,0,0,17.43-9.13c14.91-21.62,27.46-39.5,38.53-55.27,50.08-71.35,62-88.3,62-127.26A118.08,118.08,0,0,0,118,0Zm43.9,236.74c-11.1,15.8-23.67,33.7-38.6,55.35a6.45,6.45,0,0,1-10.6,0c-14.94-21.66-27.51-39.56-38.6-55.36C23.8,165.15,14.74,152.25,14.74,118a103.21,103.21,0,1,1,206.41,0C221.15,152.25,212.1,165.15,161.85,236.74Z"/><path class="cls-1" d="M118,52.88a6.18,6.18,0,0,0-5.12,2.68c-37.65,54.59-44.64,60.19-44.64,80.25a49.76,49.76,0,0,0,99.52,0c0-20.06-7-25.66-44.65-80.25A6.15,6.15,0,0,0,118,52.88Zm35,82.93a35,35,0,1,1-70,0c0-11.44,2.44-15.29,24.61-46.89,3.17-4.51,6.6-9.4,10.41-14.86,3.8,5.46,7.23,10.35,10.4,14.86C150.53,120.52,153,124.37,153,135.81Z"/></g></g></svg>