<svg id="Layer_1" data-name="Layer 1" xmlns="http://www.w3.org/2000/svg" viewBox="0 0 320.05 512.07"><defs><style>.cls-1{fill:#ccc;}</style></defs><path class="cls-1" d="M208,96a48,48,0,1,0-48-48A48,48,0,0,0,208,96Zm94.5,149.1-23.3-11.8-9.7-29.4c-14.7-44.6-55.7-75.8-102.2-75.9-36-.1-55.9,10.1-93.3,25.2a95.39,95.39,0,0,0-49.7,46.2L17.58,213a32.1,32.1,0,0,0,14.2,42.9,31.57,31.57,0,0,0,42.5-14.3L81,228a31.79,31.79,0,0,1,16.5-15.4l26.8-10.8-15.2,60.7A64.22,64.22,0,0,0,124,321.3l59.9,65.4a64.54,64.54,0,0,1,14.9,27.7l18.3,73.3a32,32,0,1,0,62.1-15.5l-22.2-89a64.07,64.07,0,0,0-14.9-27.7l-45.5-49.7,17.2-68.7,5.5,16.5a63.78,63.78,0,0,0,31.7,37l23.29,11.8a31.57,31.57,0,0,0,42.5-14.3,32.37,32.37,0,0,0-14.29-43ZM73.58,385.8a62.05,62.05,0,0,1-14.2,21.5l-50,50.1a32,32,0,0,0,45.2,45.3L114,443.3a64.82,64.82,0,0,0,14.19-21.5l13.5-33.8c-55.3-60.3-38.69-41.8-47.4-53.7Z"/></svg>