<?xml version="1.0" encoding="utf-8"?>
<!-- Generator: Adobe Illustrator 25.2.3, SVG Export Plug-In . SVG Version: 6.00 Build 0)  -->
<svg version="1.1" id="Layer_1" xmlns="http://www.w3.org/2000/svg" xmlns:xlink="http://www.w3.org/1999/xlink" x="0px" y="0px"
	 viewBox="0 0 40.9 58.6" style="enable-background:new 0 0 40.9 58.6;" xml:space="preserve">
<style type="text/css">
	.st0{fill:#00CC99;}
	.st1{fill:#E9ECEE;}
	.st2{fill:#FFFFFF;}
	.st3{fill:#CCCCCC;}
	.st4{fill:#23CC99;}
	.st5{fill:#E03228;}
	.st6{fill:#ADE3D4;}
	.st7{fill:#0086D4;}
	.st8{opacity:0.3;}
	.st9{clip-path:url(#SVGID_2_);}
	.st10{fill:#2B5860;}
	.st11{clip-path:url(#SVGID_4_);}
	.st12{clip-path:url(#SVGID_6_);}
	.st13{fill:url(#Rectangle_16_1_);}
	.st14{fill:#3D3D3D;}
	.st15{fill:#515252;}
	.st16{fill:#34A853;}
	.st17{fill:#FBBC04;}
	.st18{fill:#4285F4;}
	.st19{fill:#1A73E8;}
	.st20{fill:#EA4335;}
</style>
<g id="g842" transform="translate(-583.3 52.9)">
	<path id="path835" class="st16" d="M594.6-9.5c1.7,2.2,3.2,4.4,4.6,6.8c1.1,2.1,1.9,4.2,2.5,6.4c0.5,1.5,1,1.9,2,1.9
		c1.1,0,1.6-0.8,2-1.9c0.6-2.2,1.4-4.3,2.4-6.3c2-3.4,4.3-6.7,6.9-9.7c0.7-0.8,4.9-5.8,6.8-9.8c1.5-3.2,2.3-6.8,2.3-10.4
		c0-3.3-0.8-6.6-2.3-9.6l-6.6,1.8l-4,10.6l-1,1.4l-0.2,0.3l-0.3,0.3l-0.4,0.5l-0.7,0.7l-3.6,2.9l-9,5.2L594.6-9.5z"/>
	<path id="path833" class="st17" d="M585.3-22.7c2.2,5,6.4,9.4,9.3,13.3l15.2-18c-1.5,1.8-3.7,2.8-6,2.8c-4.3,0-7.8-3.4-7.8-7.7
		c0,0,0,0,0-0.1c0-1.8,0.6-3.6,1.8-5l-10.3,2.7L585.3-22.7z"/>
	<path id="path831" class="st18" d="M609.9-52c5.2,1.6,9.5,5.3,12,10.1l-12.1,14.5c1.1-1.4,1.7-3.2,1.8-5c0-4.3-3.5-7.7-7.8-7.8
		c-2.3,0-4.5,1-6,2.8v-9.1L609.9-52z"/>
	<path id="path829" class="st19" d="M588.1-45.6c3.9-4.6,9.6-7.3,15.6-7.3c2.1,0,4.2,0.3,6.2,0.9l-12.2,14.5h-8.6L588.1-45.6z"/>
	<path id="path827" class="st20" d="M585.3-22.7c-1.3-3-2-6.3-2-9.7c0-4.8,1.7-9.5,4.8-13.2l9.6,8.1L585.3-22.7z"/>
</g>
</svg>
