<svg id="Layer_1" data-name="Layer 1" xmlns="http://www.w3.org/2000/svg" viewBox="0 0 496 496"><defs><style>.cls-1{fill:#fff;}</style></defs><path class="cls-1" d="M248,0C111,0,0,111,0,248S111,496,248,496,496,385,496,248,385,0,248,0Zm0,464C129.34,464,32,368,32,248,32,129.34,128.05,32,248,32c118.66,0,216,96.05,216,216C464,366.66,368,464,248,464ZM389.63,189l-180.48,179a12,12,0,0,1-17-.07L106.3,281.43a12,12,0,0,1,.07-17l8.52-8.45a12,12,0,0,1,17,.07l69,69.53L364.28,163.48a12,12,0,0,1,17,.07l8.45,8.52a12,12,0,0,1-.07,17Z"/></svg>