<svg id="Layer_1" data-name="Layer 1" xmlns="http://www.w3.org/2000/svg" viewBox="0 0 512 448"><defs><style>.cls-1{fill:#0c9;}</style></defs><path class="cls-1" d="M496,40H288V16A16,16,0,0,0,272,0H240a16,16,0,0,0-16,16V40H16A16,16,0,0,0,0,56V72A16,16,0,0,0,16,88H224v24a16,16,0,0,0,16,16h32a16,16,0,0,0,16-16V88H496a16,16,0,0,0,16-16V56A16,16,0,0,0,496,40Zm0,320H160V336a16,16,0,0,0-16-16H112a16,16,0,0,0-16,16v24H16A16,16,0,0,0,0,376v16a16,16,0,0,0,16,16H96v24a16,16,0,0,0,16,16h32a16,16,0,0,0,16-16V408H496a16,16,0,0,0,16-16V376A16,16,0,0,0,496,360Zm0-160H416V176a16,16,0,0,0-16-16H368a16,16,0,0,0-16,16v24H16A16,16,0,0,0,0,216v16a16,16,0,0,0,16,16H352v24a16,16,0,0,0,16,16h32a16,16,0,0,0,16-16V248h80a16,16,0,0,0,16-16V216A16,16,0,0,0,496,200Z"/></svg>