<svg xmlns="http://www.w3.org/2000/svg" viewBox="0 0 496 496"><defs><style>.cls-1{fill:#fff;}</style></defs><g id="Layer_2" data-name="Layer 2"><g id="Layer_1-2" data-name="Layer 1"><path class="cls-1" d="M248,0C111,0,0,111,0,248S111,496,248,496,496,385,496,248,385,0,248,0Zm0,464C129.3,464,32,367.9,32,248,32,129.3,128.1,32,248,32c118.7,0,216,96.1,216,216C464,366.7,367.9,464,248,464Zm94.8-285.3L273.5,248l69.3,69.3a12,12,0,0,1,0,17l-8.5,8.5a12,12,0,0,1-17,0L248,273.5l-69.3,69.3a12,12,0,0,1-17,0l-8.5-8.5a12,12,0,0,1,0-17L222.5,248l-69.3-69.3a12,12,0,0,1,0-17l8.5-8.5a12,12,0,0,1,17,0L248,222.5l69.3-69.3a12,12,0,0,1,17,0l8.5,8.5a12.2,12.2,0,0,1,0,17Z"/></g></g></svg>